<svg width="20" height="20" viewBox="0 0 20 20" fill="none" xmlns="http://www.w3.org/2000/svg">
<path fill-rule="evenodd" clip-rule="evenodd" d="M19.6952 18.2156L14.7659 13.2668C16.0337 11.8111 16.7283 9.98025 16.7283 8.07434C16.7283 3.62224 12.9763 0 8.363 0C3.75194 0 0 3.62224 0 8.07434C0 12.5278 3.75194 16.15 8.363 16.15C10.0944 16.15 11.7458 15.6462 13.1554 14.6878L18.1238 19.6761C18.3315 19.8855 18.6102 20 18.9106 20C19.1929 20 19.4606 19.8956 19.6652 19.7055C20.1002 19.3027 20.1125 18.6356 19.6952 18.2156ZM8.363 2.1069C11.7722 2.1069 14.5459 4.78475 14.5459 8.07434C14.5459 11.3657 11.7722 14.0431 8.363 14.0431C4.95562 14.0431 2.18234 11.3657 2.18234 8.07434C2.18234 4.78475 4.95562 2.1069 8.363 2.1069Z" fill="url(#paint0_linear)"/>
<defs>
<linearGradient id="paint0_linear" x1="20" y1="0" x2="0" y2="0" gradientUnits="userSpaceOnUse">
<stop stop-color="#ECBCB3"/>
<stop offset="1" stop-color="#EAA79E"/>
</linearGradient>
</defs>
</svg>
