<svg width="20" height="24" viewBox="0 0 20 24" fill="none" xmlns="http://www.w3.org/2000/svg">
<path d="M19.4348 6.22379C19.6088 6.32791 19.7166 6.51459 19.7197 6.71732C19.7513 8.72673 18.9895 10.6208 17.6589 11.9974C19.0067 13.3832 19.7514 15.2749 19.7197 17.2826C19.7165 17.4854 19.6088 17.6721 19.4348 17.7762C18.2434 18.4893 16.9146 18.8534 15.5883 18.8534C14.9967 18.8534 14.4055 18.7802 13.8273 18.6339C13.3005 20.4746 12.041 22.0815 10.285 23.0589C10.1964 23.1082 10.0982 23.1328 10 23.1328C9.90189 23.1328 9.80368 23.1082 9.71509 23.0589C7.95897 22.0815 6.6995 20.4746 6.17269 18.6339C5.59448 18.7802 5.00345 18.8534 4.41165 18.8534C3.08556 18.8534 1.75659 18.4893 0.565208 17.7762C0.391243 17.6721 0.28343 17.4854 0.280266 17.2827C0.248625 15.2749 0.993351 13.3832 2.34107 11.9975C1.01046 10.6209 0.248625 8.72679 0.280266 6.71738C0.283489 6.51465 0.391302 6.32797 0.565208 6.22384C2.28962 5.19172 4.31093 4.90443 6.16835 5.36849C6.69458 3.50849 7.96044 1.91773 9.71503 0.941208C9.89216 0.842595 10.1077 0.842595 10.285 0.941208C12.0396 1.91773 13.3055 3.50849 13.8317 5.36855C15.6891 4.90443 17.7104 5.19172 19.4348 6.22379ZM12.5947 7.1191C12.5084 7.1689 12.4236 7.22111 12.34 7.27513C13.0945 7.65031 13.747 8.20086 14.2438 8.87334L14.8271 8.5366C15.1074 8.3747 15.4657 8.47086 15.6275 8.75105C15.7893 9.0313 15.6933 9.38966 15.413 9.55144L14.8312 9.88736C15.1153 10.5346 15.2734 11.2491 15.2734 12.0001C15.2734 12.1129 15.2694 12.2247 15.2624 12.3358C15.3508 12.2905 15.4382 12.2432 15.5243 12.1936C17.3322 11.1497 18.4687 9.20662 18.5447 7.06677C16.6536 6.06254 14.4026 6.07525 12.5947 7.1191ZM11.0033 8.02302C10.6821 7.94199 10.3461 7.89845 10 7.89845C9.65392 7.89845 9.31782 7.94199 8.99649 8.02308C8.98935 8.0249 8.9822 8.02654 8.97499 8.02812C7.20775 8.48451 5.89847 10.0922 5.89847 12C5.89847 14.2616 7.73837 16.1016 10 16.1016C12.2616 16.1016 14.1015 14.2616 14.1015 12C14.1015 10.0923 12.7923 8.48457 11.0252 8.02818C11.0179 8.0266 11.0105 8.0249 11.0033 8.02302ZM18.5449 16.9334C18.4901 15.343 17.8596 13.8622 16.7764 12.7707C16.5638 12.928 16.3419 13.0746 16.1102 13.2083C15.7495 13.4166 15.3704 13.5926 14.9799 13.7346C14.9351 13.8629 14.8854 13.989 14.8311 14.1127L15.413 14.4486C15.6932 14.6104 15.7893 14.9687 15.6274 15.249C15.5189 15.4369 15.322 15.5421 15.1195 15.5421C15.0201 15.5421 14.9193 15.5167 14.827 15.4634L14.2437 15.1266C14.1636 15.235 14.0797 15.3404 13.9917 15.4423C14.0642 15.8524 14.1015 16.2699 14.1015 16.6875C14.1015 16.9549 14.0855 17.2204 14.0556 17.4831C15.5426 17.8755 17.1401 17.6812 18.5449 16.9334ZM10 21.8666C11.8152 20.731 12.9297 18.7752 12.9297 16.6875C12.9297 16.5876 12.9269 16.4876 12.9219 16.3877C12.2384 16.8444 11.4428 17.1455 10.586 17.2407V17.9121C10.586 18.2357 10.3236 18.498 10 18.498C9.67642 18.498 9.41409 18.2357 9.41409 17.9121V17.2407C8.55722 17.1455 7.76163 16.8443 7.07819 16.3877C7.07316 16.4875 7.07034 16.5875 7.07034 16.6875C7.07028 18.7751 8.18485 20.7309 10 21.8666ZM5.94435 17.4832C5.91446 17.2204 5.89841 16.955 5.89841 16.6875C5.89841 16.2699 5.93573 15.8525 6.00833 15.4423C5.92038 15.3405 5.83636 15.2351 5.75632 15.1267L5.17302 15.4635C5.08073 15.5168 4.98001 15.5421 4.88064 15.5421C4.67814 15.5421 4.4812 15.437 4.37263 15.249C4.21079 14.9688 4.30683 14.6104 4.58708 14.4486L5.16886 14.1127C5.1146 13.9891 5.06491 13.8631 5.02009 13.7347C4.62962 13.5926 4.25046 13.4166 3.88976 13.2083C3.65814 13.0746 3.43624 12.928 3.22367 12.7708C2.14044 13.8622 1.50997 15.343 1.45513 16.9335C2.85986 17.6812 4.45741 17.8754 5.94435 17.4832ZM1.45531 7.06671C1.53119 9.20656 2.66767 11.1496 4.47569 12.1935C4.56177 12.2432 4.64919 12.2904 4.73761 12.3358C4.73058 12.2247 4.72659 12.1129 4.72659 12.0001C4.72659 11.2491 4.88468 10.5346 5.1688 9.88736L4.58702 9.55144C4.30677 9.38961 4.21073 9.03131 4.37257 8.75099C4.53435 8.4708 4.89271 8.37476 5.17296 8.53654L5.75626 8.87334C6.25302 8.20086 6.90552 7.65031 7.66009 7.27513C7.57648 7.22111 7.49163 7.1689 7.40538 7.1191C5.59735 6.07525 3.34624 6.06259 1.45531 7.06671ZM9.99997 2.13318C8.65003 2.97588 7.68294 4.26236 7.27929 5.74613C7.52175 5.8516 7.7597 5.97043 7.99132 6.1042C8.35196 6.31238 8.69392 6.55267 9.01214 6.81974C9.14444 6.79455 9.27845 6.77433 9.41403 6.75927V6.08791C9.41403 5.76429 9.67642 5.50197 9.99997 5.50197C10.3236 5.50197 10.5859 5.76429 10.5859 6.08791V6.75927C10.7215 6.77433 10.8555 6.79455 10.9878 6.81974C11.306 6.55273 11.648 6.31238 12.0086 6.1042C12.2402 5.97049 12.4781 5.85166 12.7206 5.74613C12.3171 4.26236 11.3499 2.97593 9.99997 2.13318Z" fill="#E4988D"/>
</svg>
